<svg width="120" height="122" viewBox="0 0 120 122" fill="none" xmlns="http://www.w3.org/2000/svg">
<path d="M29.3788 100.158L30.5042 100.885L30.5243 110.893L30.5702 110.923C30.6799 110.728 30.805 110.505 30.9455 110.254C31.0836 110.006 31.2366 109.744 31.4045 109.468C31.5662 109.192 31.7373 108.915 31.9178 108.635L35.0343 103.813L35.9414 104.399L30.5173 112.793L29.3977 112.069L29.38 102.096L29.3399 102.07C29.2609 102.209 29.1481 102.405 29.0013 102.657C28.852 102.913 28.6916 103.187 28.52 103.477C28.3422 103.769 28.1741 104.038 28.0158 104.283L24.8734 109.146L23.9547 108.552L29.3788 100.158ZM20.7466 102.83C20.2743 102.401 19.9644 101.929 19.8169 101.414C19.6695 100.898 19.6779 100.37 19.8422 99.8303C20.0035 99.2934 20.3123 98.7736 20.7688 98.2709L21.2421 97.7496L25.0732 101.228C25.6544 100.568 25.9428 99.9249 25.9384 99.2993C25.934 98.6736 25.6468 98.1019 25.0766 97.5841C24.7257 97.2655 24.3862 97.0157 24.0581 96.8347C23.7299 96.6537 23.3641 96.4939 22.9606 96.3553L23.6316 95.6164C24.0249 95.7458 24.386 95.9075 24.7147 96.1014C25.0401 96.2921 25.3901 96.5576 25.7646 96.8976C26.2976 97.3817 26.6652 97.9124 26.8673 98.4899C27.0629 99.0676 27.0789 99.6669 26.9152 100.287C26.7516 100.908 26.3925 101.524 25.838 102.135C25.2957 102.732 24.7275 103.158 24.1332 103.412C23.5325 103.667 22.9427 103.747 22.3639 103.652C21.7817 103.555 21.2426 103.281 20.7466 102.83ZM21.3817 102.151C21.8305 102.559 22.3214 102.737 22.8544 102.685C23.3875 102.634 23.9183 102.368 24.4468 101.887L21.5115 99.2223C21.2147 99.556 21.0035 99.8936 20.878 100.235C20.7461 100.577 20.7185 100.909 20.7954 101.231C20.8691 101.556 21.0646 101.863 21.3817 102.151ZM15.0957 96.8703C14.6899 96.378 14.4511 95.8661 14.3793 95.3347C14.3074 94.8033 14.3916 94.2821 14.6319 93.7711C14.8686 93.263 15.249 92.793 15.773 92.3611L16.3163 91.9132L19.6076 95.9064C20.2777 95.3364 20.6555 94.7416 20.7411 94.1217C20.8267 93.5019 20.6246 92.8949 20.1347 92.3006C19.8333 91.9348 19.5332 91.6388 19.2345 91.4126C18.9358 91.1863 18.5967 90.9756 18.2173 90.7804L18.9875 90.1456C19.3582 90.3302 19.6923 90.5421 19.9897 90.7812C20.2843 91.0168 20.5925 91.3297 20.9142 91.7201C21.3722 92.2757 21.6597 92.8538 21.7766 93.4542C21.8872 94.0541 21.8169 94.6495 21.5657 95.2404C21.3145 95.8313 20.8707 96.3891 20.2341 96.9137C19.6117 97.4268 18.9881 97.7665 18.3635 97.933C17.7324 98.0988 17.1372 98.0932 16.578 97.9163C16.0159 97.7359 15.5218 97.3872 15.0957 96.8703ZM15.8218 96.2895C16.2073 96.7572 16.6675 97.0039 17.2025 97.0296C17.7374 97.0552 18.3009 96.8683 18.893 96.4689L16.3712 93.4094C16.0295 93.6969 15.772 94.0007 15.5987 94.3207C15.419 94.6401 15.344 94.9647 15.3738 95.2946C15.4 95.6273 15.5493 95.959 15.8218 96.2895ZM17.1534 86.3359C17.6394 87.1497 17.7472 87.9612 17.4767 88.7704C17.2039 89.5756 16.5197 90.3054 15.4242 90.9597C14.3169 91.621 13.3367 91.8773 12.4835 91.7287C11.6264 91.5824 10.9572 91.1062 10.4758 90.3002C10.2725 89.9598 10.1399 89.6356 10.078 89.3275C10.0161 89.0194 10.0066 88.7279 10.0493 88.4529C10.0882 88.1802 10.1661 87.924 10.283 87.6843L10.2409 87.6139C10.129 87.7019 9.97204 87.8169 9.77011 87.9587C9.56817 88.1006 9.40069 88.2112 9.26767 88.2907L6.69123 89.8295L6.10937 88.8552L15.2414 83.4012L15.7111 84.1876L14.8831 84.8811L14.9077 84.9222C15.1718 84.929 15.4383 84.9795 15.7069 85.0739C15.9733 85.1643 16.2305 85.3106 16.4786 85.5127C16.7205 85.7133 16.9454 85.9877 17.1534 86.3359ZM16.2524 86.667C15.8411 85.9784 15.3545 85.6082 14.7927 85.5562C14.2308 85.5043 13.5645 85.7085 12.7937 86.1688L12.6177 86.274C11.7999 86.7624 11.2538 87.2744 10.9791 87.81C10.7022 88.3417 10.7775 88.9655 11.2051 89.6815C11.5626 90.2801 12.0611 90.5902 12.7003 90.6119C13.3357 90.6358 14.0505 90.4106 14.8448 89.9362C15.6351 89.4642 16.1578 88.9529 16.413 88.4025C16.6658 87.8481 16.6122 87.2696 16.2524 86.667ZM11.205 72.8202L8.57091 74.9735L9.81294 78.782L13.2079 78.9619L13.5725 80.0797L2.81948 79.4737L2.49519 78.4793L10.8319 71.6764L11.205 72.8202ZM7.69765 75.625L5.06402 77.7135C4.99451 77.7649 4.88082 77.8499 4.72296 77.9685C4.56369 78.0827 4.39863 78.2013 4.22777 78.3241C4.05691 78.447 3.91935 78.5469 3.81509 78.6241C4.00686 78.6095 4.20004 78.5992 4.39464 78.5933C4.58349 78.5844 4.76151 78.5791 4.9287 78.5773C5.09155 78.5769 5.23062 78.5771 5.34591 78.5778L8.71077 78.7316L7.69765 75.625ZM2.73484 68.9455C2.59539 68.0678 2.70594 67.3696 3.06651 66.8509C3.42257 66.3329 4.07544 65.9984 5.02512 65.8475L9.84551 65.0816L10.0215 66.1888L5.27531 66.9429C4.65869 67.0409 4.21989 67.256 3.95888 67.5882C3.69717 67.9158 3.61244 68.37 3.70469 68.9506C3.83485 69.7697 4.15818 70.309 4.67468 70.5684C5.19119 70.8278 5.89052 70.8874 6.77269 70.7473L10.6479 70.1315L10.826 71.2522L3.42661 72.4279L3.28286 71.5233L4.32274 71.185L4.31309 71.1242C4.02701 71.0082 3.7769 70.8426 3.56275 70.6274C3.34409 70.413 3.1658 70.1622 3.02787 69.8749C2.88544 69.5884 2.78776 69.2786 2.73484 68.9455ZM2.23777 64.7742L2.21847 63.5576L6.53933 61.8345C6.79299 61.7348 7.03764 61.642 7.27329 61.5562C7.50438 61.4705 7.7265 61.3941 7.93965 61.3269C8.15281 61.2597 8.35934 61.2063 8.55926 61.1666L8.5585 61.1188C8.32965 61.0586 8.02974 60.9722 7.65877 60.8596C7.28324 60.7471 6.90073 60.6255 6.51124 60.495L2.14612 58.9986L2.12671 57.7751L10.7702 60.8991C11.2331 61.065 11.6373 61.2614 11.9828 61.4883C12.3282 61.7108 12.5946 61.9846 12.7821 62.3097C12.9741 62.6349 13.0738 63.0298 13.0812 63.4946C13.0846 63.7088 13.0739 63.8981 13.0492 64.0626C13.029 64.227 13.0039 64.3687 12.9739 64.4876L12.0648 64.5021C12.086 64.4015 12.1046 64.2804 12.1206 64.1388C12.1365 63.9927 12.1432 63.8422 12.1407 63.6873C12.1363 63.4048 12.0777 63.1619 11.9651 62.9585C11.857 62.7506 11.6992 62.5731 11.4917 62.4259C11.2843 62.2788 11.0385 62.1528 10.7542 62.0479L9.69507 61.6545L2.23777 64.7742ZM8.49484 47.6504C9.07746 47.7579 9.54806 47.9953 9.90664 48.3627C10.2616 48.7247 10.4987 49.1855 10.6179 49.7451C10.7371 50.3047 10.7318 50.9362 10.602 51.6399C10.5334 52.0118 10.4506 52.3604 10.3536 52.6854C10.2565 53.0104 10.1488 53.3057 10.0303 53.5711C9.91182 53.8366 9.78385 54.0656 9.6464 54.258L8.55063 54.0559C8.75156 53.7454 8.95717 53.3593 9.16746 52.8976C9.37326 52.4351 9.52494 51.9394 9.62249 51.4105C9.71342 50.9175 9.72532 50.4888 9.65818 50.1242C9.58656 49.7588 9.44362 49.4659 9.22937 49.2457C9.01146 49.0201 8.72772 48.8751 8.37815 48.8106C8.04202 48.7486 7.74828 48.7709 7.49691 48.8775C7.24107 48.9832 6.98944 49.1917 6.74204 49.5029C6.49098 49.8087 6.20557 50.2381 5.88581 50.7908C5.66103 51.1803 5.4319 51.518 5.19842 51.804C4.96046 52.0891 4.7096 52.3186 4.44583 52.4924C4.18207 52.6662 3.89196 52.7818 3.5755 52.8393C3.25987 52.8923 2.91158 52.8836 2.53063 52.8134C2.00628 52.7167 1.5825 52.5018 1.25929 52.1687C0.932431 51.8304 0.713804 51.4077 0.603411 50.9008C0.489364 50.3885 0.488968 49.8254 0.602223 49.2114C0.698945 48.6871 0.837525 48.2121 1.01796 47.7866C1.19923 47.3567 1.40708 46.971 1.64152 46.6296L2.55728 47.1669C2.34408 47.4937 2.15139 47.8474 1.97922 48.2281C1.80788 48.6043 1.68335 49.003 1.60564 49.4243C1.52793 49.8456 1.52496 50.2135 1.59671 50.5279C1.66481 50.8371 1.79684 51.0885 1.99282 51.2822C2.1888 51.4759 2.4414 51.6013 2.75064 51.6583C3.09573 51.722 3.39579 51.7032 3.65081 51.6019C3.90665 51.4962 4.15356 51.3008 4.39152 51.0156C4.62582 50.7252 4.88811 50.3333 5.17837 49.84C5.49565 49.3008 5.81026 48.8513 6.12219 48.4918C6.42964 48.1314 6.77309 47.8774 7.15255 47.7295C7.52753 47.5809 7.97496 47.5545 8.49484 47.6504ZM5.13107 41.8583C5.3354 41.2539 5.64438 40.7811 6.058 40.4398C6.47162 40.0986 6.95887 39.8953 7.51976 39.8299C8.07633 39.7631 8.67625 39.8385 9.31952 40.0559L9.98654 40.2814L8.32927 45.1837C9.16688 45.4524 9.87158 45.4597 10.4434 45.2056C11.0152 44.9515 11.4244 44.4597 11.671 43.7301C11.8228 43.2811 11.9161 42.87 11.9508 42.4969C11.9855 42.1238 11.9858 41.7246 11.9516 41.2993L12.8971 41.6189C12.9357 42.0313 12.9318 42.4268 12.8855 42.8057C12.8407 43.1802 12.7373 43.607 12.5753 44.0863C12.3447 44.7684 12.0051 45.3175 11.5566 45.7335C11.1052 46.1437 10.5622 46.398 9.9277 46.4961C9.29317 46.5943 8.5852 46.5113 7.80377 46.2472C7.03962 45.9888 6.42213 45.6382 5.95132 45.1952C5.47764 44.7464 5.16852 44.2378 5.02393 43.6694C4.88081 43.0966 4.91652 42.4929 5.13107 41.8583ZM6.00741 42.169C5.8133 42.7432 5.84639 43.2643 6.10669 43.7323C6.367 44.2004 6.82295 44.5806 7.47455 44.8731L8.74432 41.1171C8.31977 40.9783 7.92586 40.9197 7.5626 40.9413C7.19648 40.957 6.88113 41.0645 6.61655 41.2637C6.34765 41.4614 6.14461 41.7632 6.00741 42.169ZM8.46896 33.8383C8.5345 33.7029 8.61122 33.5654 8.69912 33.4257C8.78292 33.284 8.86493 33.1617 8.94514 33.0587L9.8301 33.6467C9.74777 33.7435 9.66563 33.8557 9.58369 33.9831C9.50174 34.1105 9.43198 34.2337 9.37438 34.3526C9.24331 34.6234 9.17456 34.9065 9.16814 35.2022C9.1596 35.4917 9.21419 35.7764 9.33189 36.0561C9.4455 36.3339 9.62104 36.5936 9.85852 36.8352C10.0919 37.0747 10.3829 37.2789 10.7316 37.4477L14.3494 39.1994L13.8519 40.2269L7.1085 36.9619L7.51959 36.1129L8.81606 36.6039L8.83692 36.5608C8.65423 36.3002 8.508 36.0218 8.39824 35.7256C8.28437 35.4274 8.22847 35.1194 8.23053 34.8014C8.23458 34.4793 8.31405 34.1582 8.46896 33.8383ZM17.0706 34.2584L9.22368 32.6319L9.87738 31.6056L14.5851 32.6509C14.9077 32.7213 15.2584 32.8069 15.6373 32.9077C16.0161 33.0086 16.3139 33.101 16.5305 33.1849L16.5562 33.1446C16.3934 32.976 16.1887 32.7376 15.9421 32.4292C15.6916 32.1183 15.4657 31.8367 15.2645 31.5843L12.3269 27.7599L12.9806 26.7336L17.7684 33.1629L17.0706 34.2584ZM14.5435 24.7013L20.4632 29.2937L19.7676 30.1903L13.8479 25.5979L14.5435 24.7013ZM11.9896 23.4209C12.1041 23.2732 12.2505 23.1849 12.4287 23.1559C12.6062 23.1205 12.7957 23.181 12.9973 23.3375C13.1954 23.4911 13.3011 23.6596 13.3145 23.8431C13.3307 24.0229 13.2816 24.1867 13.167 24.3343C13.0469 24.4891 12.8978 24.5811 12.7195 24.6101C12.5441 24.6355 12.3573 24.5713 12.1593 24.4177C11.9577 24.2613 11.8491 24.0963 11.8337 23.9229C11.8175 23.743 11.8695 23.5757 11.9896 23.4209ZM23.8706 25.7439C23.4079 26.2346 22.8987 26.572 22.3432 26.7559C21.7876 26.9398 21.2041 26.9408 20.5927 26.7589C19.9813 26.5769 19.3606 26.1889 18.7306 25.5949C18.0708 24.9727 17.6352 24.3552 17.4238 23.7424C17.2122 23.1232 17.1882 22.5243 17.3517 21.9456C17.5153 21.367 17.83 20.8306 18.2959 20.3366C18.5522 20.0647 18.8274 19.8294 19.1214 19.6305C19.4152 19.4253 19.6802 19.2805 19.9163 19.1962L20.3731 20.0967C20.1504 20.2 19.9094 20.336 19.65 20.5048C19.3937 20.6703 19.1765 20.8475 18.9982 21.0365C18.6418 21.4145 18.426 21.8061 18.3509 22.2113C18.2788 22.6132 18.3409 23.0256 18.5371 23.4486C18.7364 23.8683 19.0664 24.2955 19.5273 24.7301C19.9683 25.1459 20.4009 25.4411 20.8251 25.6157C21.2525 25.7869 21.6616 25.8313 22.0525 25.7489C22.4432 25.6601 22.8089 25.435 23.1497 25.0736C23.4218 24.7851 23.6374 24.4967 23.7965 24.2083C23.9524 23.9168 24.078 23.6375 24.1733 23.3703L24.9094 24.0644C24.8303 24.3343 24.7093 24.6055 24.5464 24.8778C24.3866 25.1469 24.1614 25.4356 23.8706 25.7439ZM23.3565 15.7756C23.8509 15.3723 24.3639 15.136 24.8956 15.0668C25.4274 14.9976 25.9481 15.0844 26.458 15.3272C26.9649 15.5664 27.433 15.9491 27.8623 16.4752L28.3075 17.0208L24.298 20.2923C24.8647 20.9651 25.4577 21.3459 26.0771 21.4346C26.6965 21.5233 27.3045 21.3242 27.9012 20.8372C28.2685 20.5376 28.566 20.239 28.7937 19.9414C29.0214 19.6438 29.2338 19.3058 29.4309 18.9274L30.0619 19.7007C29.8754 20.0705 29.6619 20.4035 29.4213 20.6998C29.1843 20.9932 28.8698 21.2998 28.4779 21.6196C27.92 22.0748 27.3405 22.3594 26.7394 22.4734C26.139 22.581 25.544 22.5077 24.9543 22.2536C24.3647 21.9995 23.8091 21.5529 23.2876 20.9138C22.7777 20.2888 22.441 19.6636 22.2777 19.0381C22.115 18.4062 22.1235 17.8111 22.3031 17.2528C22.4863 16.6915 22.8375 16.1992 23.3565 15.7756ZM23.9337 16.5046C23.4641 16.8878 23.2151 17.3468 23.1868 17.8816C23.1585 18.4164 23.3426 18.9808 23.7391 19.5749L26.8111 17.0683C26.5252 16.7252 26.2227 16.4661 25.9036 16.2913C25.5851 16.11 25.2608 16.0334 24.9309 16.0615C24.598 16.0861 24.2656 16.2338 23.9337 16.5046ZM34.6323 14.7566C34.884 15.1635 34.9935 15.5701 34.9607 15.9762C34.9293 16.376 34.7669 16.7632 34.4734 17.1377C34.1838 17.5097 33.7774 17.8576 33.2541 18.1813C32.8084 18.457 32.4012 18.6606 32.0325 18.7923C31.6638 18.9239 31.3178 19.0013 30.9945 19.0244L30.4443 18.1349C30.7831 18.1022 31.1651 18.0267 31.5902 17.9084C32.0154 17.79 32.416 17.6146 32.7919 17.3821C33.3423 17.0416 33.6863 16.7055 33.8241 16.3738C33.9618 16.0421 33.936 15.7231 33.7466 15.417C33.6387 15.2426 33.4937 15.1206 33.3114 15.0512C33.1306 14.9755 32.8855 14.9475 32.5763 14.9674C32.2646 14.9833 31.8566 15.0428 31.3523 15.1458C30.8495 15.2425 30.4021 15.3075 30.0101 15.341C29.6197 15.3682 29.2747 15.3216 28.9753 15.2014C28.6797 15.0788 28.4229 14.8411 28.2047 14.4885C27.8715 13.9497 27.8332 13.4027 28.0898 12.8474C28.348 12.2858 28.8317 11.7856 29.5409 11.3469C29.9246 11.1096 30.3071 10.9266 30.6884 10.7979C31.0711 10.6629 31.4474 10.5695 31.8172 10.5176L31.9699 11.4922C31.6368 11.5428 31.2971 11.6217 30.9507 11.7288C30.6043 11.8359 30.2761 11.9853 29.9661 12.1771C29.5204 12.4528 29.2229 12.7386 29.0737 13.0346C28.9284 13.3281 28.9349 13.6027 29.0931 13.8585C29.2154 14.0562 29.3703 14.1854 29.558 14.2462C29.7495 14.3045 30.0021 14.3144 30.3158 14.2758C30.6295 14.2371 31.0327 14.1699 31.5254 14.0741C32.0157 13.9745 32.4553 13.9142 32.8443 13.8933C33.2309 13.8685 33.5712 13.9205 33.8653 14.0494C34.1608 14.1721 34.4165 14.4078 34.6323 14.7566ZM41.7952 12.8829C41.9687 12.8136 42.1405 12.7277 42.3106 12.6254C42.4807 12.523 42.6145 12.4279 42.7118 12.3399L43.0391 13.1588C42.9384 13.2628 42.7856 13.3779 42.5807 13.5039C42.3801 13.6282 42.1762 13.7319 41.9688 13.8147C41.6006 13.9619 41.2409 14.032 40.8897 14.0251C40.5369 14.014 40.2077 13.8904 39.9023 13.6542C39.6011 13.4163 39.3414 13.0244 39.1232 12.4785L37.4742 8.35249L36.4839 8.74826L36.2784 8.23409L37.1101 7.42318L36.9253 5.74498L37.56 5.49128L38.2044 7.10361L40.242 6.28924L40.5719 7.11445L38.5342 7.92882L40.1706 12.0231C40.3448 12.459 40.5745 12.7451 40.8596 12.8814C41.149 13.016 41.4608 13.0165 41.7952 12.8829ZM49.2278 7.72188C49.384 8.31693 49.4464 8.86833 49.4149 9.37607C49.3833 9.88382 49.2643 10.3367 49.0579 10.7349C48.8515 11.1331 48.5638 11.4726 48.1946 11.7533C47.8286 12.0285 47.3856 12.2343 46.8655 12.371C46.3806 12.4983 45.9135 12.5315 45.4639 12.4705C45.0177 12.404 44.6046 12.2486 44.2248 12.0044C43.8494 11.759 43.5188 11.4242 43.233 10.9998C42.9516 10.5742 42.7327 10.0639 42.5764 9.4689C42.368 8.6755 42.3253 7.96579 42.4483 7.33979C42.5702 6.70938 42.8419 6.18331 43.2636 5.76157C43.6885 5.33427 44.247 5.02973 44.939 4.84797C45.6002 4.67431 46.2164 4.67031 46.7876 4.83596C47.3633 5.00046 47.8612 5.32671 48.2816 5.81472C48.7051 6.29716 49.0205 6.93288 49.2278 7.72188ZM43.7136 9.1702C43.8664 9.75203 44.0761 10.2364 44.3427 10.6235C44.6093 11.0105 44.9341 11.2786 45.3173 11.4277C45.7004 11.5768 46.1454 11.5847 46.6523 11.4516C47.1548 11.3196 47.5362 11.0946 47.7966 10.7764C48.0615 10.4572 48.2148 10.0635 48.2568 9.59543C48.2988 9.12735 48.2434 8.6024 48.0905 8.02057C47.9389 7.44315 47.7309 6.96533 47.4667 6.58711C47.2013 6.20449 46.8776 5.94083 46.4956 5.79614C46.1136 5.65145 45.667 5.64625 45.1557 5.78055C44.4019 5.97852 43.9142 6.37286 43.6924 6.96356C43.475 7.5531 43.4821 8.28865 43.7136 9.1702ZM58.7322 1.48692C58.1811 1.50624 57.688 1.6193 57.2529 1.82608C56.8222 2.02814 56.4583 2.31451 56.1613 2.68517C55.8686 3.05113 55.6491 3.48975 55.5029 4.00105C55.3566 4.51235 55.2946 5.08453 55.3168 5.71761C55.3462 6.55563 55.5016 7.2798 55.7829 7.89011C56.0686 8.4957 56.477 8.95791 57.008 9.27674C57.5436 9.5954 58.2031 9.741 58.9864 9.71353C59.4328 9.69788 59.8505 9.64675 60.2397 9.56014C60.6332 9.46882 61.0147 9.35968 61.3842 9.23272L61.4196 10.2438C61.06 10.3932 60.681 10.5068 60.2824 10.5846C59.884 10.667 59.4093 10.7179 58.8582 10.7372C57.8425 10.7728 56.9858 10.5931 56.2879 10.198C55.5944 9.79828 55.0634 9.21953 54.6948 8.46179C54.3308 7.7039 54.1304 6.80119 54.0937 5.75366C54.0672 4.99761 54.1477 4.30393 54.3354 3.67262C54.5274 3.0366 54.8181 2.48375 55.2075 2.01409C55.6014 1.54426 56.0901 1.176 56.6735 0.909293C57.2614 0.637874 57.9402 0.488669 58.7099 0.461677C59.2154 0.443949 59.7045 0.476959 60.1772 0.560708C60.6498 0.644456 61.0784 0.77307 61.463 0.946548L61.0329 1.94661C60.709 1.81205 60.3539 1.6991 59.9676 1.60776C59.5858 1.51171 59.174 1.47143 58.7322 1.48692ZM66.3181 3.35012C67.2053 3.45335 67.8408 3.72916 68.2245 4.17755C68.6082 4.62594 68.7492 5.28696 68.6475 6.16063L68.059 11.2192L67.2374 11.1237L67.1481 9.9984L67.0937 9.99208C66.8539 10.2394 66.61 10.4427 66.3621 10.602C66.1147 10.7567 65.8361 10.8643 65.5262 10.9246C65.2215 10.9809 64.8541 10.984 64.424 10.934C63.9713 10.8813 63.5777 10.7552 63.243 10.5557C62.9129 10.3567 62.6647 10.0846 62.4984 9.73958C62.3366 9.395 62.2844 8.97601 62.3418 8.48259C62.4282 7.7402 62.7888 7.20407 63.4236 6.87418C64.0584 6.5443 64.98 6.4313 66.1883 6.53518L67.478 6.63017L67.5309 6.17524C67.6057 5.53244 67.5201 5.06596 67.274 4.77581C67.0278 4.48566 66.6536 4.31135 66.1511 4.25289C65.7618 4.20759 65.384 4.22099 65.0178 4.29307C64.6515 4.36516 64.301 4.45973 63.9662 4.57677L63.7194 3.68092C64.0744 3.54788 64.4763 3.44553 64.9251 3.37387C65.3739 3.30221 65.8382 3.29429 66.3181 3.35012ZM67.372 7.42304L66.2325 7.33864C65.3003 7.26688 64.6286 7.34242 64.2172 7.56526C63.8059 7.78809 63.5718 8.14396 63.5149 8.63285C63.4654 9.05836 63.5578 9.38798 63.7921 9.62171C64.0265 9.85543 64.3564 9.99705 64.7819 10.0465C65.4428 10.1234 66.0051 10.003 66.4687 9.68537C66.9324 9.36769 67.2069 8.84218 67.2922 8.10884L67.372 7.42304ZM70.9852 11.7666L69.8697 11.5239L72.1312 1.13043L73.2467 1.37316L70.9852 11.7666ZM74.0552 12.5932L72.96 12.271L75.9615 2.0666L77.0567 2.38874L74.0552 12.5932ZM87.7586 10.4203L84.4356 17.1353L83.6024 16.723L83.9222 15.7067L83.8671 15.6794C83.613 15.8435 83.3363 15.9506 83.0369 16.0008C82.7375 16.0509 82.4297 16.0461 82.1136 15.9862C81.7995 15.9325 81.4872 15.8288 81.1768 15.6752C80.6458 15.4124 80.243 15.1063 79.9685 14.7569C79.6939 14.4075 79.5537 14.0076 79.5478 13.5572C79.5459 13.1088 79.6845 12.6028 79.9634 12.0391L82.1403 7.64013L83.1696 8.14948L81.0291 12.475C80.7522 13.0346 80.6716 13.5159 80.7874 13.9189C80.9052 14.3179 81.2235 14.6458 81.7422 14.9025C82.2406 15.1491 82.6832 15.2512 83.0703 15.2088C83.4615 15.1685 83.8123 14.9989 84.1229 14.7001C84.4355 14.3971 84.7232 13.9802 84.986 13.4492L86.7354 9.91404L87.7586 10.4203ZM91.0444 19.0302C90.7742 19.4251 90.4467 19.6897 90.0621 19.8241C89.6838 19.9573 89.264 19.9654 88.8028 19.8486C88.3453 19.7343 87.8627 19.5035 87.355 19.156C86.9225 18.86 86.5715 18.5701 86.3019 18.2862C86.0323 18.0023 85.8215 17.7172 85.6695 17.4309L86.2602 16.5678C86.4272 16.8644 86.6509 17.1831 86.9312 17.524C87.2114 17.8649 87.534 18.1602 87.8988 18.4099C88.4328 18.7753 88.8794 18.954 89.2385 18.9457C89.5976 18.9374 89.8788 18.7847 90.0821 18.4876C90.198 18.3184 90.2507 18.1363 90.2405 17.9415C90.2365 17.7456 90.1629 17.5102 90.0196 17.2354C89.8789 16.9569 89.6594 16.6079 89.3611 16.1884C89.0692 15.7677 88.8286 15.3849 88.6394 15.04C88.4565 14.694 88.3595 14.3597 88.3482 14.0373C88.3407 13.7174 88.4541 13.3863 88.6883 13.0441C89.0461 12.5213 89.5308 12.2649 90.1425 12.2748C90.7605 12.2836 91.4136 12.5235 92.1019 12.9945C92.4742 13.2493 92.7963 13.525 93.0683 13.8216C93.3466 14.117 93.5843 14.4232 93.7814 14.7404L92.952 15.2745C92.7709 14.9904 92.5613 14.7116 92.3232 14.4382C92.0851 14.1648 91.8156 13.9252 91.5147 13.7193C91.0822 13.4233 90.7005 13.267 90.3695 13.2503C90.0423 13.2362 89.7938 13.3533 89.6239 13.6015C89.4926 13.7933 89.4372 13.9873 89.4575 14.1835C89.4817 14.3822 89.5749 14.6172 89.7372 14.8884C89.8995 15.1596 90.1241 15.5011 90.4111 15.9129C90.7007 16.3209 90.9337 16.6986 91.1103 17.0458C91.2894 17.3893 91.3795 17.7215 91.3807 18.0426C91.3882 18.3625 91.2761 18.6917 91.0444 19.0302ZM91.2776 20.9055C91.4812 20.6599 91.6848 20.5356 91.8884 20.5327C92.095 20.5264 92.2842 20.5944 92.4561 20.7369C92.6351 20.8852 92.7423 21.0629 92.7779 21.27C92.8163 21.4735 92.7338 21.6981 92.5302 21.9437C92.3295 22.1858 92.1213 22.3121 91.9054 22.3226C91.6924 22.3296 91.4965 22.2589 91.3175 22.1106C91.1456 21.9681 91.0451 21.793 91.0159 21.5853C90.9897 21.3742 91.0769 21.1476 91.2776 20.9055ZM95.147 16.2371C95.3564 15.9845 95.5629 15.8568 95.7666 15.8539C95.9731 15.8475 96.1624 15.9156 96.3343 16.0581C96.5132 16.2064 96.6205 16.3841 96.656 16.5911C96.6945 16.7947 96.609 17.0228 96.3996 17.2754C96.2019 17.514 95.9965 17.6368 95.7836 17.6437C95.5706 17.6507 95.3746 17.5801 95.1957 17.4317C95.0238 17.2892 94.9232 17.1142 94.8941 16.9065C94.865 16.6989 94.9493 16.4757 95.147 16.2371Z" fill="white"/>
</svg>
